<?xml version="1.0" encoding="UTF-8" standalone="no"?>
<!-- Created with Inkscape (http://www.inkscape.org/) -->

<svg
   width="11.904762mm"
   height="18.809528mm"
   viewBox="0 0 50.000002 70.714303"
   version="1.1"
   id="svg5"
   xml:space="preserve"
   inkscape:version="1.2.2 (732a01da63, 2022-12-09)"
   sodipodi:docname="Mione.svg"
   inkscape:export-filename="Mione.png"
   inkscape:export-xdpi="96"
   inkscape:export-ydpi="96"
   xmlns:inkscape="http://www.inkscape.org/namespaces/inkscape"
   xmlns:sodipodi="http://sodipodi.sourceforge.net/DTD/sodipodi-0.dtd"
   xmlns="http://www.w3.org/2000/svg"
   xmlns:svg="http://www.w3.org/2000/svg"><sodipodi:namedview
     id="namedview7"
     pagecolor="#ffffff"
     bordercolor="#000000"
     borderopacity="0.25"
     inkscape:showpageshadow="2"
     inkscape:pageopacity="0.0"
     inkscape:pagecheckerboard="0"
     inkscape:deskcolor="#d1d1d1"
     inkscape:document-units="mm"
     showgrid="false"
     inkscape:zoom="5.12"
     inkscape:cx="7.9101563"
     inkscape:cy="48.730469"
     inkscape:window-width="1920"
     inkscape:window-height="991"
     inkscape:window-x="-9"
     inkscape:window-y="-9"
     inkscape:window-maximized="1"
     inkscape:current-layer="layer1" /><defs
     id="defs2" /><g
     inkscape:label="圖層 1"
     inkscape:groupmode="layer"
     id="layer1"
     transform="translate(0,-17.399996)"><path
       style="fill:#de8787;stroke-width:0.207636"
       d="M 0.2489973,92.008132 0,91.758792 v -0.80382 -0.80385 l 0.51507472,-2.03466 0.51506668,-2.03467 0.9121127,-2.67794 0.9121046,-2.67792 0.8591546,-2.1436 0.8591606,-2.14358 1.0146991,-2.115816 1.0147082,-2.115808 0.6550153,-0.900048 0.6550132,-0.900051 0.2645804,0.101665 0.2645884,0.101673 0.2316017,-0.143331 0.2315946,-0.143326 1.6831332,-3.109909 1.683133,-3.109917 1.887953,-3.261887 1.887945,-3.261899 0.599608,0.427533 0.5996,0.427528 -0.322621,0.35696 -0.322614,0.356973 1.136351,0.815187 1.136352,0.8152 0.0047,0.208135 0.0047,0.208126 0.881865,0.451001 0.881864,0.450991 2.386222,0.541554 2.386222,0.541554 0.493132,0.108471 0.493131,0.108476 -0.493131,0.531375 -0.493132,0.531379 -1.270425,0.911833 -1.270418,0.911846 -1.323299,0.497624 -1.323299,0.497632 -1.556227,0.237833 -1.556235,0.237842 -1.452479,0.162642 -1.452479,0.162651 0.622492,0.281093 0.622492,0.281097 1.727796,0.789321 1.727803,0.789315 -0.130254,0.21104 -0.130255,0.211042 -1.182552,0.356436 -1.182551,0.356428 -1.659982,-0.007 -1.659973,-0.007 -1.223669,-0.361554 -1.223669,-0.361568 -0.176337,0.274422 -0.176345,0.27442 -0.9115393,1.766089 -0.9115414,1.766091 -1.1706931,2.661386 -1.1706853,2.66138 -1.0407292,3.05244 -1.0407283,3.05246 -0.8388727,2.80496 -0.8388728,2.80498 -0.2141221,0.2597 -0.214129,0.25973 H 1.1577714 0.49843402 L 0.24943771,92.007822 Z M 6.9511635,69.784394 6.5361655,69.555947 5.7404728,68.803786 4.9447732,68.051615 4.5525499,67.290915 4.1603275,66.53022 3.9605492,65.639901 3.760771,64.749583 l 0.107394,-0.17399 0.1073871,-0.17399 0.6690843,0.588247 0.6690754,0.588248 0.6697594,0.277797 0.6697494,0.277789 0.1035283,-0.103665 0.1035284,-0.10366 L 6.3175974,64.28791 5.7749167,62.649457 5.6624564,60.426364 5.5499891,58.20327 l 0.1400893,-0.365564 0.1400962,-0.365559 0.7897876,1.238116 0.7897868,1.238117 0.8777007,0.986934 0.8777077,0.98693 H 9.355022 9.5448795 V 61.580126 61.238004 L 8.8970088,59.242652 8.249139,57.247294 8.1447399,55.257211 8.0403498,53.267136 8.3933767,51.522567 8.7463956,49.77799 l 0.1670661,-0.298919 0.1670601,-0.298923 0.4396778,0.995295 0.4396778,0.995295 -0.00839,0.129419 -0.00839,0.129423 -0.6140621,0.719368 -0.6140611,0.719358 v 0.158225 0.158213 l 1.9168128,1.44739 1.916814,1.447386 0.352705,-0.319629 0.352705,-0.319623 0.740356,0.56545 0.740347,0.565451 -0.465431,0.753617 -0.465432,0.753607 -1.51583,2.5972 -1.515822,2.597191 -1.666068,3.37635 -1.6660602,3.376354 -0.036941,-0.0063 -0.036941,-0.0063 L 6.951191,69.784437 Z M 21.78723,60.764827 v -0.118543 l 2.099032,-2.738374 2.09904,-2.73837 0.339059,0.0255 0.33906,0.02554 2.386222,0.247592 2.386212,0.247597 0.726249,0.109697 0.72624,0.109696 -1.485231,1.418234 -1.485228,1.418233 -1.524677,0.734318 -1.524669,0.734319 -1.841589,0.321577 -1.841597,0.321581 H 22.486287 21.78723 Z m -2.316472,-1.068903 -0.967731,-0.745502 0.233642,-0.374617 0.233633,-0.374626 -0.09589,-0.08068 -0.0959,-0.08068 -2.972929,-2.231988 -2.972928,-2.231974 -0.268619,0.367846 -0.26861,0.36785 -0.908404,-0.698805 -0.908403,-0.698802 -0.176612,-0.150262 -0.176611,-0.150267 2.229287,-2.981343 2.229279,-2.981343 0.133822,-0.153224 0.133823,-0.153228 2.462764,0.830643 2.462764,0.830636 0.0745,-0.0746 0.0745,-0.0746 -1.37556,-1.946049 -1.375554,-1.946045 -0.08572,-0.223675 -0.08572,-0.223674 2.17955,-2.952199 2.179551,-2.952201 h 0.07105 0.07106 l 1.055221,0.788357 1.055229,0.788355 -0.209267,0.374436 -0.209259,0.374428 0.177121,0.15976 0.177129,0.159758 2.835859,2.118282 2.835859,2.118281 0.394019,-0.246394 0.394019,-0.246398 0.959386,0.701351 0.959379,0.701359 -0.08124,0.250772 -0.08124,0.250758 -1.793093,2.390424 -1.793092,2.390424 -1.131261,-0.855254 -1.131254,-0.855255 0.216937,-0.217229 0.216937,-0.217228 V 48.400459 48.25941 l -1.608104,-1.204513 -1.608105,-1.204521 -0.715777,-0.5348 -0.715778,-0.534809 0.16131,0.266047 0.161319,0.266051 2.370066,3.434582 2.370067,3.434582 v 0.217206 0.217201 l -0.639926,0.809056 -0.639934,0.809061 h -0.315295 -0.315289 l -3.833768,-1.264715 -3.833769,-1.264723 -0.0716,0.0717 -0.0716,0.0717 2.168768,1.640536 2.168775,1.640532 0.253679,-0.339294 0.253686,-0.3393 1.086897,0.83439 1.086905,0.83439 -1.605642,2.165234 -1.60565,2.165234 -0.207494,-0.0047 -0.207495,-0.0047 -0.967739,-0.745494 z m 11.850229,-11.679818 4.374247,-5.832536 0.256532,-0.0047 0.256533,-0.0047 2.58025,-0.200861 2.580255,-0.200862 0.687834,-0.129215 0.687833,-0.129211 v 0.369937 0.369928 l -0.652415,1.159565 -0.65242,1.159564 -1.03927,1.558317 -1.039271,1.558312 -1.790896,1.784477 -1.790897,1.784486 -1.549222,0.762323 -1.549239,0.762333 -1.867475,0.393392 -1.867471,0.393399 -0.999572,0.139313 -0.999571,0.139312 4.374235,-5.832539 z m -19.908631,-0.05528 v -1.370211 l 0.412159,-1.336191 0.412158,-1.336191 1.135426,-1.810959 1.135434,-1.810958 0.475517,-0.603199 0.475509,-0.603199 0.177419,-0.01147 0.177412,-0.01147 -0.09045,0.883047 -0.09045,0.883039 0.167733,1.55832 0.167742,1.558313 0.122616,0.560956 0.122616,0.56096 -0.639471,-0.183649 -0.639479,-0.183642 -1.584247,2.116 -1.58424,2.115986 -0.176705,0.197393 -0.176698,0.197384 v -1.370211 z m 20.601762,-4.693927 -1.057527,-0.790082 0.166822,-0.302465 0.166826,-0.302461 -1.458715,-1.12454 -1.458714,-1.124541 -0.332001,0.209697 -0.331994,0.209704 -0.993611,-0.742793 -0.993611,-0.742793 0.09964,-0.260011 0.09965,-0.260018 1.181862,-1.572345 1.181852,-1.572346 0.25015,0.09612 0.25015,0.09612 2.155473,1.640061 2.155474,1.640054 0.268463,0.161449 0.268462,0.16144 0.268298,-0.222969 0.268298,-0.22296 1.067502,0.797536 1.067502,0.797528 -1.459883,1.952795 -1.459874,1.952791 -0.156483,0.157563 -0.156469,0.157544 z m 5.310566,-3.204285 0.82402,-1.082072 -0.42971,-0.301387 -0.42972,-0.301388 0.994132,-0.505901 0.994119,-0.505903 0.981003,-1.02454 0.981009,-1.024549 0.667766,-1.254529 0.667765,-1.254538 0.137133,-0.959982 0.137141,-0.959982 1.606788,-0.271758 1.606792,-0.271766 1.280668,-0.521074 1.28066,-0.521081 0.09665,0.09678 0.09665,0.09678 -0.473504,1.305361 -0.4735,1.305362 -0.814563,1.700765 -0.814558,1.700765 -1.205845,1.311981 -1.205837,1.311982 -1.194369,0.71837 -1.194361,0.718371 -2.305107,0.780456 -2.305116,0.780449 -0.165066,0.0078 -0.16507,0.0078 0.824028,-1.082061 z m -19.572718,0.04321 0.135925,-0.934993 0.299706,-1.211463 0.299706,-1.211465 0.47609,-1.074069 0.47609,-1.074061 0.746983,-1.166113 0.746983,-1.166106 1.259375,-1.586921 1.259383,-1.586913 h 0.169687 0.169679 l 0.317923,1.48269 0.317924,1.482688 -3.219824,4.283083 -3.219823,4.283085 -0.185866,0.207772 -0.185866,0.207775 z m 6.473355,-3.670544 -0.985612,-0.731657 v -0.204119 -0.204105 l 0.947945,-1.23357 0.947937,-1.23357 0.945067,0.677968 0.945067,0.677967 0.09209,0.237968 0.09208,0.237966 -0.895723,1.257208 -0.89573,1.257199 -0.103747,-0.0039 -0.103756,-0.0039 -0.985612,-0.731665 z m 10.820741,0.487879 -0.747234,-0.279321 -0.956966,-0.688152 -0.956962,-0.688161 -0.566238,-0.818181 -0.566246,-0.818189 -0.08751,-1.211472 -0.08751,-1.21148 0.51853,-1.134128 0.518527,-1.134137 0.763266,-0.845965 0.763253,-0.845972 0.882312,-0.427695 0.882312,-0.427686 1.023847,0.0047 1.02385,0.0047 0.829996,0.386153 0.829986,0.386151 0.910051,0.7924 0.910051,0.792392 0.382245,0.842699 0.382258,0.842698 0.0047,1.050023 0.0047,1.050032 -0.53126,1.067535 -0.531269,1.067543 -0.806624,0.832286 -0.806628,0.832285 -0.64449,0.333727 -0.644489,0.333725 -0.974462,0.09554 -0.974448,0.09554 -0.747242,-0.279321 z m 2.754007,-3.810038 0.379456,-0.343873 V 32.293455 31.817654 L 37.00451,30.975112 35.829496,30.13258 h -0.385662 -0.385665 l -0.243694,0.535569 -0.243703,0.535578 0.215147,0.347468 0.215151,0.347477 1.01861,0.778109 1.018606,0.778107 0.19117,7.79e-4 0.191157,7.8e-4 0.379456,-0.343864 z m -8.592802,0.142342 -0.568615,-0.448812 -0.184147,0.113963 -0.184148,0.113961 -0.957152,-0.731823 -0.957152,-0.731814 -0.132827,-0.52994 -0.132835,-0.529947 0.113205,-1.250077 0.113197,-1.250077 0.644373,-1.310646 0.644365,-1.310655 2.192059,-2.095681 2.192049,-2.095688 h 0.169671 0.169671 l -0.290938,0.968015 -0.290935,0.968007 0.0047,0.746139 0.0047,0.746138 0.280932,1.343166 0.280929,1.343166 -0.58356,0.734587 -0.583563,0.734595 -0.550321,1.106196 -0.550309,1.106195 -0.136991,1.354921 -0.136992,1.354922 -0.568615,-0.448811 z m 13.279206,-4.124887 -0.355397,-1.001995 -0.881555,-0.873999 -0.88156,-0.874009 0.202638,-0.284236 0.202642,-0.284245 0.497303,-0.696673 0.497304,-0.696673 -0.87567,0.849428 -0.875666,0.849428 -0.86662,-0.433874 -0.866611,-0.433874 -1.452489,2.9e-4 -1.45248,2.9e-4 -0.911227,0.462562 -0.911235,0.462554 0.134084,-1.444564 0.134071,-1.44457 0.44433,-1.19992 0.44433,-1.199921 1.485987,-1.454434 1.485982,-1.454426 2.166799,-1.338485 2.166794,-1.338485 1.820266,-0.926049 1.820265,-0.92605 0.9952,-0.09576 0.995212,-0.09575 0.554585,0.659968 0.554584,0.659961 0.412198,1.388665 0.412197,1.388658 0.208635,1.733158 L 50,20.820704 l -0.209802,1.481243 -0.209799,1.481252 -0.503413,1.101075 -0.503414,1.101076 -1.061275,1.035095 -1.061275,1.035103 -1.755889,1.038519 -1.755894,1.038512 h -0.0487 -0.04871 z"
       id="path918" /></g></svg>
