<?xml version="1.0" encoding="UTF-8" standalone="no"?>
<!-- Created with Inkscape (http://www.inkscape.org/) -->

<svg
   version="1.1"
   id="svg20"
   width="240"
   height="240"
   viewBox="0 0 240 240"
   sodipodi:docname="Mioprety-nobackground.svg"
   xml:space="preserve"
   inkscape:version="1.2.2 (732a01da63, 2022-12-09)"
   xmlns:inkscape="http://www.inkscape.org/namespaces/inkscape"
   xmlns:sodipodi="http://sodipodi.sourceforge.net/DTD/sodipodi-0.dtd"
   xmlns="http://www.w3.org/2000/svg"
   xmlns:svg="http://www.w3.org/2000/svg"><defs
     id="defs24" /><sodipodi:namedview
     id="namedview22"
     pagecolor="#ffffff"
     bordercolor="#000000"
     borderopacity="0.25"
     inkscape:showpageshadow="2"
     inkscape:pageopacity="0.0"
     inkscape:pagecheckerboard="0"
     inkscape:deskcolor="#d1d1d1"
     showgrid="false"
     inkscape:zoom="1.1902964"
     inkscape:cx="-28.564314"
     inkscape:cy="225.57407"
     inkscape:window-width="1920"
     inkscape:window-height="991"
     inkscape:window-x="-9"
     inkscape:window-y="-9"
     inkscape:window-maximized="1"
     inkscape:current-layer="g26" /><g
     inkscape:groupmode="layer"
     inkscape:label="Image"
     id="g26"><path
       style="fill:#e6417d;fill-opacity:1;stroke-width:1.00035"
       d="m 58.181707,155.98232 c -15.17906,-5.10534 -24.99505,-18.13914 -28.97626,-38.4751 -0.96131,-4.91039 -1.54542,-5.8509 -4.80939,-7.74406 -5.87709,-3.40877 -11.86734,-8.85861 -7.26046,-6.60544 1.90019,0.92935 6.32344,1.92014 9.82945,2.20175 7.32382,0.58827 7.53472,0.85841 8.5522,10.9545 3.07498,30.51236 31.25712,40.53322 51.82421,18.42738 11.75365,-12.63304 16.781223,-14.3905 11.15198,-3.89834 -9.93203,18.5119 -27.47993,29.45517 -40.31173,25.13931 z m 108.766463,0.69645 c -7.55432,-2.43009 -22.01875,-16.44161 -27.04048,-26.19379 -4.89681,-9.50956 0.9857,-7.1463 11.79918,4.74025 21.99306,24.17552 49.59796,10.48977 52.72205,-26.13815 0.24657,-2.89084 0.44778,-3.00834 5.43437,-3.17355 2.84808,-0.0943 7.30522,-1.11301 9.90477,-2.26364 6.25829,-2.77012 6.30111,-2.29513 0.17443,1.93487 -9.32443,6.43778 -10.33953,7.81754 -11.49812,15.62865 -3.15394,21.26358 -25.71172,40.54294 -41.4962,35.46536 z M 74.682067,124.90585 c -9.22584,-1.20657 -35.61929,-17.52204 -50.75112,-31.372485 -13.27545,-12.15126 -10.0352,-13.99868 10.49656,-5.98459 25.22214,9.84491 43.83966,14.761875 66.576293,17.583095 7.8898,0.97898 7.80233,2.56803 -0.58178,10.56816 -9.061023,8.6461 -14.672943,10.65318 -25.739953,9.20582 z m 77.184233,-0.35311 c -12.13252,-3.02805 -24.49033,-17.6819 -16.10494,-19.09716 2.15719,-0.3641 8.64726,-1.43693 14.42239,-2.38408 19.40188,-3.181985 30.5093,-6.481185 60.27417,-17.903015 13.66795,-5.24487 15.59112,-2.70397 5.40716,7.14397 -23.11305,22.350415 -49.78633,35.787465 -63.99878,32.240285 z"
       id="path3939"
       sodipodi:nodetypes="ssssssssssssssssssssssssssssss" /></g></svg>
