<?xml version="1.0" encoding="UTF-8" standalone="no"?>
<!-- Created with Inkscape (http://www.inkscape.org/) -->

<svg
   width="35.749mm"
   height="56.484mm"
   viewBox="0 0 50.000002 70.714303"
   version="1.1"
   id="svg5"
   xml:space="preserve"
   inkscape:version="1.2.2 (732a01da63, 2022-12-09)"
   sodipodi:docname="Mione.svg"
   inkscape:export-filename="Mione.png"
   inkscape:export-xdpi="96"
   inkscape:export-ydpi="96"
   xmlns:inkscape="http://www.inkscape.org/namespaces/inkscape"
   xmlns:sodipodi="http://sodipodi.sourceforge.net/DTD/sodipodi-0.dtd"
   xmlns="http://www.w3.org/2000/svg"
   xmlns:svg="http://www.w3.org/2000/svg"><sodipodi:namedview
     id="namedview7"
     pagecolor="#ffffff"
     bordercolor="#000000"
     borderopacity="0.25"
     inkscape:showpageshadow="2"
     inkscape:pageopacity="0.0"
     inkscape:pagecheckerboard="0"
     inkscape:deskcolor="#d1d1d1"
     inkscape:document-units="mm"
     showgrid="false"
     inkscape:zoom="1.8101934"
     inkscape:cx="61.319416"
     inkscape:cy="153.85097"
     inkscape:window-width="1920"
     inkscape:window-height="991"
     inkscape:window-x="-9"
     inkscape:window-y="-9"
     inkscape:window-maximized="1"
     inkscape:current-layer="layer1" /><defs
     id="defs2" /><g
     inkscape:label="圖層 1"
     inkscape:groupmode="layer"
     id="layer1"
     transform="translate(0,-17.399996)"><path
       style="fill:#e6417d;fill-opacity:1;stroke-width:0.207637"
       d="M 0.24899731,92.008886 0,91.759549 v -0.803825 -0.803865 l 0.51507475,-2.034677 0.51506665,-2.034689 0.9121128,-2.677968 0.9121046,-2.677946 0.8591545,-2.143618 0.8591604,-2.143604 1.0146991,-2.115835 1.0147083,-2.115823 0.6550157,-0.900058 0.6550126,-0.90006 0.2645804,0.101668 0.2645886,0.101667 0.2316019,-0.143328 0.2315948,-0.143327 1.6831329,-3.109944 1.683133,-3.109944 1.887953,-3.261917 1.887945,-3.26193 0.599608,0.427538 0.5996,0.427527 -0.322621,0.356968 -0.322614,0.356979 1.136351,0.815194 1.136352,0.815208 0.0048,0.20813 0.0048,0.208131 0.881866,0.451009 0.881863,0.45099 2.386223,0.541565 2.386221,0.541556 0.493133,0.108472 0.49313,0.108475 -0.49313,0.531382 -0.493133,0.531386 -1.270424,0.911842 -1.270418,0.911851 -1.323299,0.497631 -1.3233,0.497639 -1.556227,0.237833 -1.556235,0.237844 -1.452479,0.162643 -1.452479,0.162651 0.622492,0.2811 0.622492,0.281093 1.727797,0.789334 1.727802,0.789319 -0.130254,0.211044 -0.130255,0.211048 -1.182552,0.356431 -1.18255,0.35644 -1.659983,-0.007 -1.659973,-0.007 -1.223668,-0.361556 -1.22367,-0.36158 -0.176337,0.27443 -0.176344,0.274426 L 9.2575981,72.934635 8.3460568,74.700738 7.1753636,77.362152 6.004678,80.023561 4.9639488,83.07603 3.9232204,86.128519 3.084348,88.933508 2.2454752,91.73851 2.031353,91.998218 1.8172241,92.257949 H 1.1577714 0.49843405 L 0.24943771,92.008618 Z M 6.9511634,69.784938 6.5361656,69.556487 5.7404729,68.804322 4.9447735,68.052138 4.5525499,67.291439 4.1603274,66.530736 3.9605491,65.640407 3.7607709,64.750082 3.8681652,64.576088 3.9755521,64.402096 4.6446365,64.990349 5.3137117,65.578606 5.9834714,65.856402 6.6532207,66.134195 6.7567489,66.03053 6.8602772,65.926864 6.3175972,64.2884 5.7749163,62.649936 5.6624565,60.426819 5.5499892,58.203703 l 0.1400894,-0.36557 0.1400959,-0.365561 0.7897876,1.23813 0.7897865,1.238129 0.8777017,0.986944 0.8777072,0.986941 H 9.3550224 9.5448796 V 61.580591 61.238468 L 8.897009,59.243095 8.2491393,57.247714 8.1447401,55.257617 8.0403494,53.26752 l 0.3530272,-1.744585 0.3530189,-1.744593 0.1670663,-0.298924 0.1670603,-0.298923 0.4396778,0.995303 0.4396778,0.995307 -0.00839,0.129418 -0.00839,0.129424 -0.6140626,0.719374 -0.614061,0.719368 v 0.158226 0.158212 l 1.9168119,1.447406 1.916814,1.447399 0.352706,-0.319627 0.352705,-0.319631 0.740355,0.565459 0.740348,0.565452 -0.465432,0.753627 -0.465431,0.753615 -1.51583,2.597224 -1.515822,2.597216 -1.6660678,3.376384 -1.66606,3.376379 -0.036945,-0.0063 -0.036941,-0.0063 -0.4149971,-0.228451 z M 21.78723,60.765282 v -0.118543 l 2.099032,-2.738396 2.09904,-2.738401 0.339059,0.02553 0.33906,0.02556 2.386223,0.247595 2.386211,0.247595 0.726249,0.109699 0.72624,0.109697 -1.48523,1.418247 -1.485229,1.418249 -1.524677,0.734323 -1.524669,0.734326 -1.841589,0.321581 -1.841597,0.321584 H 22.486287 21.78723 Z m -2.316472,-1.068913 -0.967731,-0.745505 0.233642,-0.374624 0.233633,-0.374628 -0.09589,-0.08068 -0.0959,-0.08069 -2.972929,-2.232008 -2.972927,-2.231993 -0.26862,0.367846 -0.26861,0.367857 -0.908403,-0.698813 -0.908404,-0.698808 -0.176612,-0.150265 -0.176611,-0.150266 2.229287,-2.981372 2.22928,-2.981371 0.133822,-0.153228 0.133822,-0.15323 2.462764,0.830651 2.462764,0.830645 0.0745,-0.0746 0.0745,-0.0746 -1.375559,-1.946068 -1.375555,-1.946063 -0.08573,-0.223676 -0.08572,-0.223677 2.17955,-2.952227 2.179551,-2.95223 h 0.07105 0.07106 l 1.055221,0.788365 1.05523,0.788363 -0.209268,0.374439 -0.20926,0.374432 0.177122,0.159761 0.177129,0.159759 2.83586,2.118304 2.835858,2.118301 0.39402,-0.246397 0.394019,-0.2464 0.959386,0.701357 0.959379,0.701366 -0.08124,0.250774 -0.08124,0.250761 -1.793094,2.390448 -1.793091,2.390446 -1.131262,-0.85526 -1.131255,-0.855265 0.216939,-0.217231 0.216937,-0.217231 v -0.141043 -0.14105 l -1.608105,-1.204524 -1.608105,-1.204536 -0.715776,-0.534804 -0.715778,-0.534814 0.161309,0.26605 0.16132,0.266052 2.370065,3.434616 2.370068,3.434617 v 0.217208 0.217201 l -0.639927,0.809062 -0.639934,0.80907 H 25.17202 24.856731 l -3.833767,-1.264725 -3.83377,-1.264737 -0.0716,0.0717 -0.0716,0.0717 2.168768,1.640551 2.168775,1.640548 0.253679,-0.3393 0.253686,-0.3393 1.086897,0.834398 1.086905,0.834401 -1.605642,2.165252 -1.60565,2.165255 -0.207494,-0.0048 -0.207495,-0.0048 -0.967739,-0.745502 z m 11.850229,-11.679926 4.374247,-5.832593 0.256533,-0.0048 0.256532,-0.0048 2.58025,-0.200863 2.580257,-0.200865 0.687831,-0.129215 0.687836,-0.129213 v 0.36994 0.369932 l -0.652415,1.159576 -0.652422,1.159575 -1.039271,1.558332 -1.039271,1.558326 -1.790896,1.784496 -1.790896,1.7845 -1.549222,0.762333 -1.549239,0.762339 -1.867475,0.393397 -1.867471,0.393401 -0.999572,0.139317 -0.99957,0.139313 4.374234,-5.832597 z m -19.908631,-0.05528 v -1.370221 l 0.412159,-1.336206 0.412158,-1.336204 1.135427,-1.810977 1.135433,-1.810975 0.475517,-0.603205 0.475509,-0.603204 0.177419,-0.01147 0.177412,-0.01147 -0.09045,0.883055 -0.09045,0.883047 0.167732,1.558335 0.167742,1.558329 0.122616,0.560961 0.122616,0.560966 -0.639471,-0.183652 -0.639479,-0.183643 -1.584246,2.11602 -1.584241,2.116006 -0.176704,0.197394 -0.176699,0.197387 v -1.370225 z m 20.601762,-4.693972 -1.057527,-0.790089 0.166823,-0.302467 0.166825,-0.302465 -1.458716,-1.124551 -1.458713,-1.124551 -0.332,0.209699 -0.331995,0.209707 -0.99361,-0.742801 -0.993612,-0.742801 0.09964,-0.260013 0.09965,-0.26002 1.181862,-1.572361 1.181852,-1.57236 0.25015,0.09612 0.25015,0.09612 2.155473,1.640077 2.155475,1.640069 0.268462,0.161451 0.268463,0.161442 0.268296,-0.222971 0.268299,-0.222962 1.067502,0.797542 1.067502,0.797536 -1.459882,1.952814 -1.459875,1.95281 -0.156483,0.157565 -0.156468,0.157545 z m 5.310566,-3.204315 0.824022,-1.082082 -0.42971,-0.30139 -0.429721,-0.301391 0.994129,-0.505905 0.994122,-0.505909 0.981001,-1.02455 0.981012,-1.024558 0.667764,-1.254542 0.667764,-1.25455 0.137136,-0.959991 0.137139,-0.959991 1.60679,-0.271761 1.606789,-0.271768 1.28067,-0.521079 1.280658,-0.521086 0.09665,0.09678 0.09665,0.09678 -0.473501,1.305373 -0.473501,1.305374 -0.814564,1.700782 -0.814557,1.700781 -1.205845,1.311994 -1.205837,1.311994 -1.194368,0.718378 -1.194364,0.718377 -2.305104,0.780464 -2.305118,0.780455 -0.165066,0.0078 -0.165069,0.0078 0.824029,-1.082072 z m -19.572718,0.04322 0.135925,-0.935001 0.299706,-1.211475 0.299706,-1.211476 0.47609,-1.07408 0.47609,-1.074071 0.746983,-1.166124 0.746983,-1.166117 1.259376,-1.586936 1.259382,-1.58693 h 0.169687 0.16968 l 0.317923,1.482706 0.317923,1.482702 -3.219824,4.283124 -3.219824,4.283125 -0.185864,0.207774 -0.185866,0.207778 z m 6.473356,-3.67058 -0.985613,-0.731664 v -0.20412 -0.204108 l 0.947945,-1.233581 0.947938,-1.233582 0.945066,0.677975 0.945067,0.677974 0.09209,0.237969 0.09208,0.237969 -0.895723,1.25722 -0.895732,1.257211 -0.103745,-0.0038 -0.103757,-0.0038 -0.985611,-0.731672 z m 10.82074,0.487884 -0.747234,-0.279323 -0.956966,-0.688159 -0.956963,-0.688167 -0.566237,-0.81819 -0.566246,-0.818196 -0.08751,-1.211484 -0.08751,-1.211492 0.51853,-1.134138 0.518527,-1.134149 0.763265,-0.845972 0.763254,-0.84598 0.882312,-0.4277 0.882312,-0.42769 1.023847,0.0048 1.023849,0.0048 0.829996,0.386158 0.829986,0.386154 0.910051,0.792408 0.910052,0.792399 0.382244,0.842707 0.382258,0.842707 0.0048,1.050032 0.0048,1.050042 -0.531261,1.067545 -0.531269,1.067554 -0.806622,0.832294 -0.806629,0.832293 -0.64449,0.33373 -0.644488,0.333728 -0.974463,0.09554 -0.974448,0.09554 -0.747242,-0.279324 z m 2.754009,-3.810074 0.379453,-0.343877 V 32.293641 31.817836 L 37.00451,30.975287 35.829497,30.132746 h -0.385663 -0.385665 l -0.243694,0.535575 -0.243703,0.535583 0.215148,0.347471 0.215151,0.34748 1.018609,0.778117 1.018606,0.778114 0.191171,7.44e-4 0.191157,7.44e-4 0.379457,-0.343867 z m -8.592804,0.142343 -0.568614,-0.448816 -0.184148,0.113964 -0.184147,0.113962 -0.957153,-0.73183 -0.957152,-0.731821 -0.132827,-0.529944 -0.132834,-0.529953 0.113204,-1.250089 0.113197,-1.250089 0.644373,-1.310659 0.644365,-1.310668 2.19206,-2.095701 2.192048,-2.095708 h 0.169671 0.169672 l -0.290939,0.968025 -0.290935,0.968016 0.0048,0.746146 0.0048,0.746146 0.280932,1.343178 0.280929,1.343178 -0.58356,0.734595 -0.583563,0.734603 -0.550321,1.106206 -0.550309,1.106206 -0.136991,1.354934 -0.136992,1.354934 -0.568616,-0.448815 z m 13.279207,-4.124927 -0.355398,-1.002004 -0.881555,-0.874008 -0.881559,-0.874017 0.202637,-0.284238 0.202642,-0.284248 0.497302,-0.696681 0.497304,-0.696679 -0.87567,0.849436 -0.875667,0.849436 -0.866618,-0.433877 -0.86661,-0.433879 -1.452489,2.9e-4 -1.452481,2.9e-4 -0.911226,0.462567 -0.911236,0.462557 0.134085,-1.444576 0.134071,-1.444584 0.444329,-1.199932 0.44433,-1.199933 1.485988,-1.454448 1.485983,-1.454439 2.166797,-1.338498 2.166792,-1.338499 1.820268,-0.926057 1.820265,-0.926059 0.995201,-0.09577 0.995212,-0.09576 0.554583,0.659974 0.554584,0.659968 0.412202,1.388678 0.412192,1.388671 0.208642,1.733175 0.208627,1.733174 -0.209799,1.481257 -0.209803,1.481267 -0.503416,1.101085 -0.503411,1.101088 -1.061276,1.035104 -1.061273,1.035113 -1.755888,1.038529 -1.755897,1.038522 h -0.0487 -0.0487 z"
       id="path918" /></g></svg>
